<?xml version="1.0" encoding="UTF-8" standalone="no" ?>
<!DOCTYPE svg PUBLIC "-//W3C//DTD SVG 1.1//EN" "http://www.w3.org/Graphics/SVG/1.1/DTD/svg11.dtd">
<svg xmlns="http://www.w3.org/2000/svg" xmlns:xlink="http://www.w3.org/1999/xlink" version="1.1" width="1080" height="1080" viewBox="0 0 1080 1080" xml:space="preserve">
<desc>Created with Fabric.js 5.2.4</desc>
<defs>
</defs>
<g transform="matrix(1 0 0 1 540 540)" id="0a20fd8b-8279-42a6-85b3-2347b3eb104a"  >
<rect style="stroke: none; stroke-width: 1; stroke-dasharray: none; stroke-linecap: butt; stroke-dashoffset: 0; stroke-linejoin: miter; stroke-miterlimit: 4; fill: rgb(255,255,255); fill-rule: nonzero; opacity: 1; visibility: hidden;" vector-effect="non-scaling-stroke"  x="-540" y="-540" rx="0" ry="0" width="1080" height="1080" />
</g>
<g transform="matrix(1 0 0 1 540 540)" id="710e5431-e10d-4a58-a5c2-73902158993b"  >
</g>
<g transform="matrix(1.44 0 0 1.44 677.6 555.92)"  >
<path style="stroke: none; stroke-width: 1; stroke-dasharray: none; stroke-linecap: butt; stroke-dashoffset: 0; stroke-linejoin: miter; stroke-miterlimit: 4; fill: rgb(255,255,255); fill-rule: evenodd; opacity: 1;" vector-effect="non-scaling-stroke"  transform=" translate(-496.3, -299)" d="M 378.3 253 C 372.6 253 367.90000000000003 257.6 367.90000000000003 263.5 C 367.90000000000003 269.3 372.6 273.9 378.3 273.9 C 384 273.9 388.7 269.29999999999995 388.7 263.5 C 388.7 257.6 384 253 378.3 253 z M 387.4 279.2 L 369.29999999999995 279.2 L 369.29999999999995 341.4 L 387.4 341.4 L 387.4 279.2 z M 263.5 255.3 L 281.2 255.3 L 281.2 279.2 L 294.8 279.2 L 294.8 295.8 L 281.2 295.8 L 281.2 317.7 C 281.2 320.9 283.7 323.5 286.8 323.5 L 294.7 323.5 L 294.7 341.2 L 286.8 341.2 C 274 341.2 263.5 330.7 263.5 317.59999999999997 L 263.5 295.7 L 255.3 295.7 L 255.3 279 L 263.5 279 L 263.5 255.3 z M 337.9 277.8 C 329.7 277.8 323.2 281.3 320.7 286.7 L 320.7 255.29999999999998 L 302.59999999999997 255.29999999999998 L 302.59999999999997 341.29999999999995 L 320.7 341.29999999999995 L 320.7 306.4 C 320.7 299.09999999999997 325.4 294 332 294 C 338.7 294 342.5 298.4 342.5 305.8 L 342.5 341.40000000000003 L 360.6 341.40000000000003 L 360.6 303.50000000000006 C 360.6 287.4 352.4 277.8 337.9 277.8 z M 413.3 279 L 413.3 287.5 C 416 281.3 422.7 277.7 431 277.6 C 432.3 277.6 433.9 277.70000000000005 435.8 277.90000000000003 L 435.8 295.20000000000005 C 434 294.90000000000003 431.90000000000003 294.6 429.8 294.6 C 419.40000000000003 294.6 413.40000000000003 300.5 413.40000000000003 310.8 L 413.40000000000003 341.2 L 395.3 341.2 L 395.3 279 L 413.3 279 z M 486.8 287.2 C 485 281.8 477.8 278 468.6 278 C 459.90000000000003 278 452.6 281.1 446.8 287.4 C 441.1 293.5 438.1 301.29999999999995 438.1 310.29999999999995 C 438.1 319.29999999999995 441.1 326.9 446.8 333.29999999999995 C 452.6 339.4 459.90000000000003 342.49999999999994 468.6 342.49999999999994 C 477.8 342.49999999999994 485 338.69999999999993 486.8 333.29999999999995 L 486.8 341.49999999999994 L 504.90000000000003 341.49999999999994 L 504.90000000000003 255.39999999999995 L 486.8 255.39999999999995 L 486.8 287.2 z M 483.1 321.3 C 480 324.3 476.3 325.7 471.8 325.7 C 467.5 325.7 463.7 324.2 460.7 321.3 C 457.59999999999997 318.2 456.09999999999997 314.5 456.09999999999997 310.2 C 456.09999999999997 305.9 457.59999999999997 302.2 460.7 299.2 C 463.8 296.09999999999997 467.4 294.59999999999997 471.8 294.59999999999997 C 476.40000000000003 294.59999999999997 480.1 296.09999999999997 483.1 299.2 C 486.3 302.2 487.90000000000003 305.9 487.90000000000003 310.2 C 487.9 314.5 486.3 318.2 483.1 321.3 z M 557.3 279.4 L 573.6999999999999 309 L 584.8 279.2 L 602.5999999999999 279.2 L 577.2 345 L 557.2 309.2 L 537.2 345 L 512 279.2 L 529.8 279.2 L 540.8 309 L 557.3 279.4 z M 632.4 277.7 C 623 277.7 615.1999999999999 280.7 609 286.7 C 603 292.59999999999997 599.9 300.4 599.9 310.09999999999997 L 599.9 310.7 C 599.9 320.4 603 328.3 609 334.09999999999997 C 615.3 339.9 623.3 342.9 633.3 342.9 C 642.6999999999999 342.9 650.3 341.09999999999997 656.0999999999999 337.2 L 656.0999999999999 321.09999999999997 C 650.3999999999999 325.09999999999997 643.0999999999999 327.09999999999997 634.3 327.09999999999997 C 624.6999999999999 327.09999999999997 618.4 322.4 618.0999999999999 314.99999999999994 L 663.1999999999999 314.99999999999994 C 663.4 313.19999999999993 663.4999999999999 311.09999999999997 663.4999999999999 308.99999999999994 C 663.4999999999999 300.09999999999997 660.4999999999999 292.69999999999993 654.7999999999998 286.69999999999993 C 649.2 280.7 641.6 277.7 632.4 277.7 z M 618.2 303.2 C 618.3000000000001 300.3 619.8000000000001 297.9 622.5 295.9 C 625.4 293.9 628.5 292.9 632.4 292.9 C 639.6 292.9 645.1999999999999 297.59999999999997 645.1999999999999 303.2 L 618.2 303.2 z M 706.8 278 C 715.5 278 722.8 281.1 728.5 287.4 C 734.3 293.59999999999997 737.3 301.09999999999997 737.3 310.09999999999997 C 737.3 319.09999999999997 734.3 326.7 728.5 333.09999999999997 C 722.8 339.2 715.5 342.29999999999995 706.8 342.29999999999995 C 697.5999999999999 342.29999999999995 690.4 338.49999999999994 688.5999999999999 333.09999999999997 L 688.5999999999999 341.29999999999995 L 670.4999999999999 341.29999999999995 L 670.4999999999999 255.29999999999995 L 688.5999999999999 255.29999999999995 L 688.5999999999999 287.29999999999995 C 690.4 281.8 697.6 278 706.8 278 z M 703.5 325.7 C 707.8 325.7 711.5 324.3 714.6 321.3 C 717.7 318.2 719.2 314.5 719.2 310.2 C 719.2 305.9 717.7 302.2 714.6 299.2 C 711.6 296.09999999999997 707.9 294.59999999999997 703.5 294.59999999999997 C 699.1 294.59999999999997 695.3 296.09999999999997 692.1 299.2 C 689 302.2 687.4 305.9 687.4 310.2 C 687.4 314.5 689 318.2 692.1 321.3 C 695.2 324.2 698.9 325.7 703.5 325.7 z" stroke-linecap="round" />
</g>
<g transform="matrix(1.44 0 0 1.44 170.21 555.65)" clip-path="url(#CLIPPATH_11)"  >
<linearGradient id="SVGID_10" gradientUnits="userSpaceOnUse" gradientTransform="matrix(1 0 0 -1 -20.94 604.36)"  x1="133.6503" y1="355.4655" x2="243.2201" y2="207.9713">
<stop offset="0%" style="stop-color:rgb(242,19,164);stop-opacity: 1"/>
<stop offset="100%" style="stop-color:rgb(82,4,191);stop-opacity: 1"/>
</linearGradient>
<clipPath id="CLIPPATH_11" >
	<rect transform="matrix(1 0 0 1 -0.06 -0.01)" id="SVGID_00000055670500402312180990000000699977473301398718_" x="-79.3" y="-49.3" rx="0" ry="0" width="158.6" height="98.6" />
</clipPath>
<path style="stroke: none; stroke-width: 1; stroke-dasharray: none; stroke-linecap: butt; stroke-dashoffset: 0; stroke-linejoin: miter; stroke-miterlimit: 4; fill: url(#SVGID_10); fill-rule: evenodd; opacity: 1;" vector-effect="non-scaling-stroke"  transform=" translate(-143.16, -298.81)" d="M 64.2 257.8 C 62.6 253.8 65.60000000000001 249.5 69.9 249.5 L 96.7 249.5 C 99.2 249.5 101.4 251 102.4 253.3 L 123.7 306.40000000000003 C 124.3 307.8 124.3 309.40000000000003 123.7 310.90000000000003 L 110.3 344.3 C 108.3 349.40000000000003 101 349.40000000000003 98.89999999999999 344.3 L 64.2 257.8 z M 115.9 257.6 C 114.5 253.60000000000002 117.4 249.50000000000003 121.60000000000001 249.50000000000003 L 145 249.50000000000003 C 147.6 249.50000000000003 149.9 251.10000000000002 150.7 253.50000000000003 L 170.1 306.6 C 170.6 307.90000000000003 170.6 309.40000000000003 170.1 310.70000000000005 L 158.5 342.6 C 156.6 347.90000000000003 148.9 347.90000000000003 147 342.6 L 115.9 257.6 z M 168.3 249.5 C 164 249.5 161 253.8 162.60000000000002 257.8 L 197.3 344.3 C 199.3 349.40000000000003 206.60000000000002 349.40000000000003 208.70000000000002 344.3 L 222.10000000000002 310.90000000000003 C 222.70000000000002 309.40000000000003 222.70000000000002 307.8 222.10000000000002 306.40000000000003 L 200.8 253.30000000000004 C 199.9 251.00000000000003 197.60000000000002 249.50000000000003 195.10000000000002 249.50000000000003 L 168.3 249.50000000000003 z" stroke-linecap="round" />
</g>
</svg>